<svg width="166" height="106" viewBox="0 0 166 106" fill="none" xmlns="http://www.w3.org/2000/svg">
<mask id="mask0_38_37" style="mask-type:luminance" maskUnits="userSpaceOnUse" x="0" y="0" width="166" height="106">
<path d="M11.9166 0L165.852 21.7963L153.936 105.957L2.08907e-07 84.1605L11.9166 0Z" fill="white"/>
</mask>
<g mask="url(#mask0_38_37)">
<path fill-rule="evenodd" clip-rule="evenodd" d="M150.462 38.9305C148.96 40.0593 147.749 39.1414 147.898 40.2063C147.939 40.9568 147.71 40.4771 146.897 42.0009C146.231 43.5473 145.962 44.4035 145.983 45.3007C146.026 46.0514 145.9 45.8839 145.358 46.5536C144.943 47.3871 144.837 47.0747 144.796 47.3664C144.734 47.8047 142.918 47.9948 141.775 49.771C140.462 51.671 139.256 54.9276 138.34 57.1832C137.279 59.4164 137.426 60.4811 137.198 62.0877C136.97 63.6962 137.097 64.9057 136.869 65.4703C136.493 66.0119 136.514 65.8652 136.41 66.597C136.307 67.3269 136.249 69.8518 135.413 70.48C134.727 71.1273 134.809 70.5423 131.784 71.9024C128.906 73.2834 127.529 73.5355 127.405 74.4122C127.26 75.4356 126.948 75.5392 125.988 76.0001C125.196 76.3351 124.425 76.5234 125.052 77.3567C125.678 78.1918 126.243 78.4195 127.243 78.7109C128.079 79.1266 128.079 78.0846 129.1 78.2292C130.123 78.3741 130.564 79.4785 132.481 78.5582C134.275 77.471 135.357 75.091 137.423 74.1918C139.633 73.3112 140.216 73.3938 140.34 72.519C140.632 71.5164 140.632 71.5164 140.632 71.5164C140.632 71.5164 140.675 73.311 141.031 73.9563C141.136 74.2705 140.865 75.1264 140.576 76.1274C138.907 77.3822 136.447 78.9701 133.444 80.1857C127.603 82.4885 130.254 82.7141 126.685 81.612C123.261 80.5323 120.414 74.3166 119.451 71.6471C118.489 68.9779 118.761 53.3671 118.671 47.6913C118.77 43.831 118.368 39.3027 117.906 37.3011C118.448 36.6333 118.281 36.7574 119.951 36.5468C121.767 36.3567 122.768 36.6481 121.911 35.3351C121.18 34.1876 121.68 33.8113 121.366 32.8726C121.072 31.7871 120.34 30.6415 118.482 30.0808C116.478 29.4978 115.205 29.02 114.849 28.3729C114.514 27.5809 114.45 25.933 113.906 25.5566C113.239 25.015 113.468 25.4946 112.738 26.4351C111.989 27.5208 112.717 26.5819 110.966 26.3339C109.066 26.0648 108.441 27.3178 108.086 26.6707C107.583 26.0027 107.04 24.5844 106.769 25.4403C106.645 26.3169 105.476 26.1515 105.749 27.3837C105.896 28.4466 106.876 27.8408 105.418 29.7203C103.981 31.4549 102.978 31.1633 102.271 33.0013C101.564 34.8375 100.565 36.6342 100.063 35.9663C99.5623 35.2986 100.23 35.8403 98.3545 37.5129C96.3116 39.3096 94.5808 41.0027 92.3271 40.0868C90.0713 39.1725 88.0658 37.5471 86.2278 35.7959C84.3899 34.0446 82.7212 34.2554 83.0728 32.816C83.4265 31.3751 83.3418 30.916 82.7152 30.0827C82.0886 29.2494 81.0634 28.0603 80.8131 27.7274C80.7284 27.2683 80.0813 26.5799 80.0813 26.5799C80.0813 26.5799 81.2704 26.5985 81.0821 25.8273C81.0387 25.0766 80.1621 23.9086 79.9099 23.5754C79.6391 23.3874 79.5337 22.0311 79.7838 21.3219C79.8666 20.7368 78.2561 18.4229 77.6916 17.1512C76.9598 16.0037 77.2909 14.7092 76.1205 13.5015C75.0764 12.4594 72.8642 12.2939 72.3635 11.6281C71.8613 10.9602 70.9639 10.9828 70.8397 11.8595C70.7156 12.7362 69.3593 12.8416 68.7968 13.6562C68.4019 14.3448 67.4818 13.47 65.9373 12.8041C64.5168 12.3056 63.3486 12.1402 62.6168 10.9926C61.7402 9.82457 61.1738 8.55267 59.1514 9.16057C57.1272 9.76821 56.7943 10.0185 55.7709 9.87361C54.7699 9.5841 52.0778 9.65004 50.9718 10.0883C49.6999 10.6547 48.2177 10.5926 48.3418 9.71595C48.3416 8.67389 45.8733 5.04486 44.1405 4.65172C43.1397 4.36035 41.283 4.84203 41.2228 6.32454C40.9953 7.93116 39.9719 7.78625 40.4762 10.5404C41.0012 13.1478 39.2705 14.8409 38.646 15.0499C37.8934 15.0931 36.6425 15.5108 36.3714 15.3247C36.078 15.2831 36.206 16.493 35.0793 17.078C33.9336 17.81 33.0569 18.7298 31.409 18.7939C29.7403 19.0048 31.3261 19.379 29.6369 20.7786C27.8028 22.1578 28.4291 22.9929 25.7204 25.2902C22.9889 27.7359 21.5329 30.6596 20.7016 33.3724C19.8701 36.0871 20.1243 39.5504 18.0606 41.4938C15.997 43.4372 15.9144 44.0205 15.1224 44.3554C14.1629 44.8164 13.3296 45.443 13.892 45.6723C14.4358 46.0467 15.1657 46.1501 16.71 45.7738C18.0871 45.5217 18.4203 45.2695 18.4203 45.2695C18.4203 45.2695 15.5251 49.9276 13.4202 51.1187C11.3131 52.3114 9.35284 52.481 9.89681 54.9414C10.4216 57.5507 8.94303 58.533 8.83964 60.3069C8.90376 61.9548 7.71679 62.9784 7.61526 64.7526C7.51188 66.5264 6.61831 69.6794 5.20177 71.2674C3.65927 72.6878 4.07683 72.8966 3.32634 73.982C2.43098 75.0469 1.84592 74.9641 1.34734 76.3845C0.849024 77.8031 0.931832 78.262 1.74644 78.8244C2.72829 79.2628 7.32068 80.508 7.42403 79.778C7.6536 79.2137 7.23396 77.9626 7.10777 76.753C7.12672 75.5621 8.0034 75.6863 8.33632 74.392C8.64662 73.2443 8.41503 70.6784 9.07902 68.0897C9.88975 65.5217 11.3889 63.3506 12.5966 61.1363C13.8042 58.9239 14.4702 57.3775 16.6599 55.6016C18.7028 53.8049 18.5147 54.0757 20.4317 52.1115C22.2038 50.1268 22.1001 50.8586 24.3108 49.978C26.5417 48.9544 25.8117 48.8511 27.3771 48.3262C28.9403 47.803 28.6487 47.7617 29.1473 46.3413C29.6269 45.0678 29.6043 44.1704 29.6682 44.7762C29.751 45.2351 30.2613 52.1619 29.283 54.8559C28.3274 57.4033 26.7249 61.3483 27.103 62.8929C27.3347 64.4148 28.089 67.5037 29.4907 70.2353C31.0373 72.9873 31.124 75.5327 32.0459 77.4517C32.9867 79.2237 32.6556 81.5621 33.1147 82.5214C33.5964 83.3342 32.9306 84.8787 34.2248 85.2117C35.4985 85.6895 40.717 86.7277 41.7385 86.8724C42.7414 87.1621 42.4477 86.0785 41.5485 85.0569C40.5043 84.0148 40.2335 84.8707 38.5214 83.287C36.6835 81.5357 36.2638 80.2846 35.6788 79.1578C35.1124 77.8859 33.7686 70.5435 33.4526 68.5606C32.9917 66.5572 32.758 62.949 33.2774 61.3818C33.6516 59.796 35.1281 56.7274 35.7093 53.6798C36.3113 50.4855 36.2076 51.2173 37.8311 49.2116C39.624 47.0801 40.8956 45.4717 40.9351 44.1359C40.8297 42.7796 40.9538 41.9029 41.1608 41.4851C41.5163 41.0883 44.5451 44.9464 49.2635 46.3591C53.9818 47.7717 54.0457 48.3776 55.6092 47.8525C57.1743 47.3295 57.1101 46.7255 57.2158 48.08C57.4679 49.457 56.6964 49.6471 58.2636 51.2104C59.8307 52.7737 61.9398 53.6672 61.9398 53.6672C61.9398 53.6672 60.1156 63.3934 59.1994 64.6051C58.4281 65.8372 56.8649 67.4044 57.1604 69.5322C57.6005 71.6824 57.0796 72.2035 56.8106 74.1036C56.6885 76.0226 56.252 78.0486 55.2948 80.5939C54.3184 83.2881 53.5038 82.7256 53.4851 84.9586C53.5926 87.3572 53.8842 87.3985 53.6357 88.1098C53.3856 88.8189 51.9031 88.7587 52.6972 89.466C53.491 90.1752 55.7035 90.3388 57.562 90.9013C59.3981 91.6085 61.7573 91.7928 61.2964 90.8333C60.6906 89.8533 59.7311 90.3142 58.9785 89.3134C58.226 88.3126 58.5384 88.2072 58.2654 86.9768C57.9925 85.7465 58.8015 81.0904 59.279 78.7747C59.6101 76.4363 60.2552 75.0384 61.713 73.1589C63.0262 71.257 63.0675 70.9654 63.3366 69.0653C63.4794 66.9996 64.4781 64.1608 65.2888 62.6368C66.2276 61.2787 68.0391 57.9582 68.7444 56.1218C69.2861 54.41 69.431 54.4305 70.8909 53.5933C72.1852 52.8823 73.2688 52.5886 73.2688 52.5886C73.2688 52.5886 72.4352 53.217 73.5435 54.8631C74.6308 56.6578 75.1932 55.8432 75.6318 56.9473C76.2187 58.0743 77.2462 62.3917 78.3563 65.082C79.4438 67.9187 80.678 70.7762 80.5765 72.5503C80.349 74.1569 81.6658 76.4312 82.1683 77.0973C82.8362 77.639 83.9463 80.3292 84.7853 83.8772C85.6454 87.2767 84.6858 87.7376 86.2945 90.0513C87.7791 92.1978 87.9484 93.116 87.9484 93.116C87.9484 93.116 87.7827 94.2862 87.0943 94.9333C86.4264 95.4355 88.3286 96.7468 89.6622 96.7879C90.8531 96.8068 91.8955 96.8048 93.9197 96.1971C95.9439 95.5895 95.9852 95.2979 95.545 94.1916C94.9805 92.92 95.2534 94.1504 93.5826 93.3189C91.9329 92.3388 92.2471 93.2776 91.325 91.3604C90.3844 89.5865 89.7127 85.9144 88.6665 83.83C87.7672 81.7645 87.2647 81.0984 87.0334 79.5746C86.8017 78.0527 86.2167 76.9259 86.8205 75.8197C87.4037 74.8584 87.2362 74.9843 87.1723 73.3346C86.9407 71.8126 85.4582 70.7085 84.7678 69.2693C83.9513 67.6627 83.2172 64.4307 83.2962 61.7592C83.377 59.0879 84.0862 58.294 83.6647 55.9987C83.2243 53.8504 83.0363 53.0774 82.9929 52.3266C82.9703 51.4292 83.1791 51.0116 83.4912 50.908C83.6588 50.7821 89.837 52.4015 93.6766 51.6037C97.5349 50.6609 98.1199 50.7437 100.101 49.3835C101.935 48.0044 102.667 48.108 103.813 47.376C105.126 46.5199 105.355 45.9556 106.335 45.3498C107.336 44.5972 107.71 44.0535 108.461 42.968C109.232 41.7359 110.818 42.1101 110.942 41.2334C111.046 40.5016 112.882 41.2087 113.55 40.7083C114.071 40.1853 114.968 40.1627 115.593 38.9098C116.07 37.6361 116.719 38.3248 117.385 37.8223C117.577 41.7258 117.988 52.513 117.953 56.9792C117.77 62.4667 118.018 76.5103 123.658 80.8859C129.298 85.2616 130.336 82.129 135.76 79.6193C137.532 78.6785 138.971 77.988 140.263 77.2768C139.992 78.1327 139.723 78.9888 139.62 79.7188C139.496 81.6375 138.371 83.2667 138.206 84.4369C138.061 85.4584 138.187 85.6259 137.207 86.2317C136.247 86.6927 136.874 87.526 136.208 88.0285C135.708 88.4047 135.228 88.6343 134.395 89.2609C133.539 90.0339 131.454 91.0801 131.099 91.4769C130.745 91.874 130.412 92.1243 130.16 91.7911C129.889 91.6031 129.825 90.9991 128.971 91.7724C128.096 92.6906 126.99 92.0869 126.781 92.5044C126.428 92.9015 127.37 95.7177 128.416 97.804C129.481 99.7432 130.317 100.159 130.84 100.68C131.528 101.075 132.531 101.367 132.74 100.949C132.967 100.385 131.797 99.1769 131.735 98.5713C131.692 97.8206 131.71 96.6316 131.961 95.9205C132.376 95.0851 131.958 94.8782 132.314 94.4814C132.521 94.0636 135.002 92.3271 136.712 91.8247C138.403 91.4692 137.527 92.3871 138.3 92.1991C139.198 92.1765 139.446 91.4671 140.116 92.0091C140.783 92.5508 139.845 92.865 140.242 93.2186C140.618 93.719 141.182 93.9486 142.433 94.5729C143.686 95.1974 144.625 94.8832 144.856 95.3631C145.107 95.696 145.504 96.0497 144.943 97.9084C144.528 99.7859 144.381 98.7231 143.798 99.6825C143.068 100.623 143.384 102.606 143.384 102.606C143.384 102.606 146.285 103.165 148.935 103.392C151.439 103.597 154.235 103.843 154.152 103.384C154.214 102.946 151.437 101.511 150.456 101.072C149.473 100.636 149.347 99.4263 148.617 99.3229C147.741 99.1988 147.927 97.8838 147.927 97.8838C147.927 97.8838 147.863 97.278 149.47 97.5054C150.911 97.8591 151.016 98.1715 151.161 97.15C151.285 96.2733 150.57 91.8505 150.694 90.9738C150.839 89.9504 153.196 89.0925 153.358 85.8358C153.5 82.7262 153.355 83.7496 152.663 80.2242C152.115 76.7193 153.096 76.1117 152.635 75.1521C152.049 74.0272 151.549 74.4035 151.82 73.5476C152.11 72.5447 152.42 69.311 152.147 68.0788C151.853 66.9952 151.33 66.474 151.372 66.1824C151.413 65.8889 151.492 62.1753 151.261 60.6515C151.05 58.9828 150.717 59.2331 151.05 57.9389C151.528 56.6652 151.881 55.2261 151.379 54.5582C151.044 53.7662 150.082 53.1829 149.979 52.8708C150.02 52.5773 150.269 51.8679 150.165 51.5558C150.06 51.2416 149.642 51.0346 149.83 50.7619C150.163 50.5116 149.725 50.4495 149.954 49.8853C150.037 49.302 150.517 49.0707 150.662 49.0912C150.955 49.1327 152.249 49.4656 152.353 48.7357C152.456 48.0058 152.248 48.4215 152.33 47.8383C152.56 47.274 152.454 46.9616 152.746 47.0029C153.06 46.8977 153.457 47.2532 153.352 46.939C153.393 46.6474 152.973 45.3963 153.162 45.1236C153.224 44.6852 153.391 44.5611 153.515 43.6845C153.784 42.8283 153.22 41.5567 152.717 40.8888C152.05 40.3471 151.651 38.9492 150.462 38.9305Z" fill="#292524"/>
</g>
</svg>
